# xmcd
# Copyright (C) 1995-1998 Ti Kan
#
# Track frame offsets:
#       150
#       16863
#       36191
#       53198
#       71070
#       91573
#       109517
#       127835
#       142643
#       160477
#       177412
#       195254
#       213300
#       230701
#
# Disc length: 3229 seconds
#
# Revision: 0
# Processed by: cddbd v1.4PL0 Copyright (c) Steve Scherf et al.
# Submitted via: CD-Transfer v1.0
#
DISCID=af0c9b0e
DTITLE=Elisabeth White - Come To Me
DYEAR=2002
DGENRE=
TTITLE0=Life Is A Bitch
TTITLE1=Would I Be ...
TTITLE2=Big Brother's Watching Over You
TTITLE3=Cry Over You
TTITLE4=Is It Too Late?
TTITLE5=Wherever You Go
TTITLE6=Chocolate, Ice Cream And Love
TTITLE7=Forever Now
TTITLE8=French Kiss
TTITLE9=In The Name Of
TTITLE10=Someone Like You
TTITLE11=Do You Believe In Paradise
TTITLE12=Gimme One More Smile
TTITLE13=Thank You My Child
EXTD=
EXTT0=
EXTT1=
EXTT2=
EXTT3=
EXTT4=
EXTT5=
EXTT6=
EXTT7=
EXTT8=
EXTT9=
EXTT10=
EXTT11=
EXTT12=
EXTT13=
PLAYORDER=
